<?xml version="1.0" encoding="UTF-8"?>
<svg width="224px" height="26px" viewBox="0 0 224 26" version="1.1" xmlns="http://www.w3.org/2000/svg" xmlns:xlink="http://www.w3.org/1999/xlink">
    <g id="Symbols" stroke="none" stroke-width="1" fill="none" fill-rule="evenodd">
        <g id="Templates/Main-Structure.with-page" transform="translate(-41.000000, -17.000000)">
            <g id="Group-5" transform="translate(41.000000, 17.500000)">
                <g id="Logos/Seequent/Master-Lockup/White" transform="translate(-0.000000, -0.000000)">
                    <g id="Logos-&gt;-Seequent-Logo-Master-Lockup-&gt;-White" transform="translate(36.861878, 5.256511)"></g>
                    <g id="Group-2" transform="translate(0.000000, 0.000000)" fill="#ffffff">
                        <path d="M4.75373521,9.99233309 L0.344757124,9.99233309 C0.209822829,9.85105033 0.134596959,9.77208779 0,9.63080503 L0,5.36399494 C0.134596959,5.22271218 0.209822829,5.14374964 0.344757124,5.00246688 L4.75373521,5.00246688 L4.75373521,9.99233309" id="Fill-15"></path>
                        <path d="M9.61178093,14.9821993 C6.92637707,14.9821993 4.74983379,12.7482321 4.74983379,9.99233309 L19.3349852,9.99233309 C22.0203891,9.99233309 24.1969324,12.2263003 24.1969324,14.9821993 L9.61178093,14.9821993 Z" id="Fill-16"></path>
                        <path d="M19.3349852,24.968232 L5.1020688,24.968232 C4.96476269,24.8273034 4.88748488,24.7479867 4.74983379,24.606704 L4.74983379,20.3398939 C4.88748488,20.1986111 4.96476269,20.1196486 5.1020688,19.9783658 L24.1969324,19.9783658 C24.1969324,22.7342648 22.0203891,24.968232 19.3349852,24.968232" id="Fill-17"></path>
                        <path d="M28.599308,19.9720655 L24.19033,19.9720655 L24.19033,14.9821993 L28.599308,14.9821993 C28.7342423,15.123128 28.8094682,15.2024446 28.9440652,15.3437274 L28.9440652,19.6105374 C28.8094682,19.7518202 28.7342423,19.8307827 28.599308,19.9720655" id="Fill-18"></path>
                        <path d="M9.61178093,0 L23.8443524,0 C23.9820035,0.141272732 24.0592813,0.22058374 24.1969324,0.361856472 L24.1969324,4.62800973 C24.0592813,4.76928247 23.9820035,4.84859347 23.8443524,4.98986621 L4.74983379,4.98986621 C4.74983379,2.23416276 6.92637707,0 9.61178093,0" id="Fill-19"></path>
                    </g>
                </g>
            </g>
        </g>
    </g>
</svg>